<?xml version="1.0" encoding="utf-8"?>
<svg xmlns="http://www.w3.org/2000/svg" xmlns:xlink="http://www.w3.org/1999/xlink" version= "1.1" width="1618px" height="1000px" viewBox="-449 214 1618 1000">
<g id="layer1">
<g style="fill:rgb(41,119,201); fill-opacity:1.0; stroke-linejoin: miter">
<path d="M-449.001,212.87222C-449.29984,212.87222,-449.58646,212.99095,-449.79776,213.20226C-450.00906,213.41356,-450.12778,213.70015,-450.12778,213.999L-450.12677,1214.0C-450.12677,1214.6223,-449.62228,1215.1267,-449.0,1215.1267L1169.001,1215.1277C1169.2998,1215.1277,1169.5864,1215.009,1169.7977,1214.7977C1170.009,1214.5864,1170.1277,1214.2998,1170.1277,1214.001L1170.1267,214.0C1170.1267,213.3777,1169.6223,212.87323,1169.0,212.87323L-449.001,212.87222 Z"/>
</g>
<g style="fill:rgb(0,0,0); fill-opacity:0.21176471; stroke-linejoin: miter">
<path d="M865.127,1152.7297L860.67487,1155.7516Q829.0219,1164.8838,675.4424,1170.3591Q520.8001,1175.83,311.23865,1174.796Q111.239426,1173.3507,-8.671059,1166.338Q-47.09171,1164.0712,-71.96481,1161.3981L-92.86998,1158.6499Q-110.09773,1155.8134,-110.29143,1152.7297Q-105.06157,1143.2666,32.555298,1136.9829Q170.17216,1130.6991,377.41785,1130.4603Q584.6635,1130.6991,722.28033,1136.9829Q859.8972,1143.2666,865.127,1152.7297"/>
</g>
<g style="fill:rgb(0,0,0); fill-opacity:1.0; stroke-linejoin: miter">
<path d="M322.8005,655.629L365.62186,655.62915L408.44308,655.6294Q408.44302,709.7152,408.44302,763.8011Q365.62173,763.80133,322.80038,763.8016Q322.8005,709.7152,322.8005,655.629 Z"/>
</g>
<g style="fill:rgb(0,0,0); fill-opacity:1.0; stroke-linejoin: miter">
<path d="M179.91214,429.79013L366.2488,429.79074L552.58545,429.79108Q552.5853,550.96094,552.5853,672.1308Q366.24866,672.1308,179.9119,672.1312Q179.91202,550.9609,179.91214,429.79013 Z"/>
</g>
<g style="fill:rgb(255,255,255); fill-opacity:1.0; stroke-linejoin: miter">
<path d="M189.36899,440.72745L366.2488,440.72806L543.12854,440.72827Q543.12854,550.303,543.1285,659.8779Q366.24866,659.8779,189.36873,659.87805Q189.36885,550.30286,189.36899,440.72745 Z"/>
</g>
<g style="fill:rgb(0,0,0); fill-opacity:1.0; stroke-linejoin: miter">
<path d="M261.2683,751.95404L365.62173,751.9547L469.97522,751.9553Q469.97522,760.2581,469.97522,768.56104Q365.62173,768.56116,261.2682,768.5614Q261.2682,760.2579,261.2683,751.95404 Z"/>
</g>
<g style="fill:rgb(252,233,234); fill-opacity:1.0; stroke-linejoin: miter">
<path d="M372.8231,677.12756L372.8231,677.1282L372.8231,677.1279C372.8231,677.5348,372.49338,677.86444,372.0866,677.86444C371.6799,677.86444,371.35013,677.5348,371.35013,677.1279L371.35013,677.1286L371.35013,677.12756C371.35013,676.7209,371.6799,676.39105,372.0866,676.39105C372.49338,676.39105,372.8231,676.7209,372.8231,677.12756 Z"/>
</g>
<g style="fill:rgb(0,0,0); fill-opacity:1.0; stroke-linejoin: miter">
<path d="M339.21487,1106.0033L347.40073,1144.1787Q325.77835,1148.5079,317.29437,1148.6218Q309.50653,1149.2294,295.25113,1145.9601L299.3423,1090.843L339.21487,1106.0033"/>
</g>
<g style="fill:rgb(0,0,0); fill-opacity:1.0; stroke-linejoin: miter">
<path d="M435.7096,1102.3672L441.00235,1146.341Q425.26108,1150.9954,417.7488,1150.8246Q409.8608,1151.0409,395.73703,1146.6542L402.56152,1107.664L435.7096,1102.3672"/>
</g>
<g style="fill:rgb(64,107,139); fill-opacity:0.99607843; stroke-linejoin: miter">
<path d="M346.3078,934.7824L345.39093,1024.5355L344.47412,1114.2888L295.34653,1115.0038Q285.43243,1025.0408,275.5183,935.07776L346.3078,934.7824"/>
</g>
<g style="fill:rgb(64,107,139); fill-opacity:0.99607843; stroke-linejoin: miter">
<path d="M391.38733,933.1292L393.50818,1024.2833L395.629,1115.4375Q421.05237,1115.2915,446.47574,1115.1455Q456.89944,1022.2908,467.3232,929.43604L391.38733,933.1292"/>
</g>
<g style="fill:rgb(255,255,255); fill-opacity:0.99607843; stroke-linejoin: miter">
<path d="M103.64176,769.62854L372.45865,769.629L641.2755,769.6295Q641.2755,779.8503,641.2755,790.071Q372.45865,790.0715,103.64176,790.07196Q103.64176,779.8503,103.64176,769.62854"/>
</g>
<g style="fill:rgb(255,191,175); fill-opacity:0.99607843; stroke-linejoin: miter">
<path d="M243.42361,705.65704L243.42361,705.6576L243.42361,779.26825Q268.1335,793.83716,292.8434,808.406Q282.8828,763.7409,272.9222,719.07574L243.42361,705.65704"/>
</g>
<g style="fill:rgb(255,191,175); fill-opacity:0.99607843; stroke-linejoin: miter">
<path d="M493.742,691.0237L493.742,691.0242L493.742,764.6349Q469.03214,779.20374,444.32224,793.77264Q454.2828,749.1075,464.24338,704.4424L493.742,691.0237"/>
</g>
<g style="fill:rgb(255,255,255); fill-opacity:0.99607843; stroke-linejoin: miter">
<path d="M163.08025,789.4035L174.44221,789.404L185.80414,789.4045Q185.80414,969.0598,185.80414,1148.7151Q174.44221,1148.7156,163.08025,1148.7161Q163.08025,969.0597,163.08025,789.4035"/>
</g>
<g style="fill:rgb(255,255,255); fill-opacity:0.99607843; stroke-linejoin: miter">
<path d="M577.78937,789.4038L589.1513,789.4043L600.5133,789.40485Q600.5133,969.06,600.5133,1148.7151Q589.1513,1148.7156,577.78937,1148.7161Q577.78937,969.06,577.78937,789.4038"/>
</g>
<g style="fill:rgb(34,43,50); fill-opacity:1.0; stroke-linejoin: miter">
<path d="M470.83148,805.86694L485.04663,805.8675L499.26178,805.868Q499.26178,875.98126,499.26178,946.09454Q485.04663,946.09503,470.83148,946.0956Q470.83148,875.98126,470.83148,805.86694"/>
</g>
<g style="fill:rgb(34,43,50); fill-opacity:1.0; stroke-linejoin: miter">
<path d="M237.71545,804.1715L251.93057,804.17206L266.14572,804.17255Q266.14572,874.2858,266.14572,944.3991Q251.93057,944.3996,237.71545,944.40015Q237.71545,874.2858,237.71545,804.1715"/>
</g>
<g style="fill:rgb(0,0,0); fill-opacity:1.0; stroke-linejoin: miter">
<path d="M474.51144,1155.1599L473.55853,1157.197Q466.7841,1163.3531,433.91443,1167.044Q400.81732,1170.7319,355.9663,1170.0349Q313.16174,1169.0605,287.4981,1164.3334Q279.27518,1162.8052,273.95178,1161.0033L269.47754,1159.1508Q265.7904,1157.2386,265.74896,1155.1599Q266.86826,1148.7809,296.32153,1144.5449Q325.77475,1140.309,370.13016,1140.1481Q414.48557,1140.309,443.9388,1144.5449Q473.39212,1148.7809,474.51144,1155.1599"/>
</g>
<g style="fill:rgb(0,0,0); fill-opacity:0.99607843; stroke-linejoin: miter">
<path d="M485.8214,930.15686L484.75385,936.7251Q479.35358,949.0542,467.29785,956.32697Q457.2346,962.97363,439.28302,968.9015Q404.54883,979.6937,357.94342,978.3071Q309.4431,976.0133,279.88858,961.41376Q277.47952,960.7253,270.37845,956.0775L265.2742,952.3878Q260.58188,948.68225,257.53714,944.9132Q251.44768,937.3751,251.94868,929.5832Q253.57773,909.39056,286.26755,896.0541Q320.17282,882.03503,368.88098,881.7522Q414.57077,881.94244,449.3031,894.8873Q484.41074,908.84625,485.8214,930.15686"/>
</g>
<g style="fill:rgb(35,75,105); fill-opacity:0.99607843; stroke-linejoin: miter">
<path d="M392.62173,1103.3994L421.07794,1103.3999L449.53415,1103.4004Q449.53415,1109.9274,449.53415,1116.4542Q421.07794,1116.4547,392.62173,1116.4552Q392.62173,1109.9274,392.62173,1103.3994"/>
</g>
<g style="fill:rgb(35,75,105); fill-opacity:0.99607843; stroke-linejoin: miter">
<path d="M293.0717,1105.8904L320.28568,1105.8909L347.4997,1105.8915Q347.4997,1112.3381,347.4997,1118.7849Q320.28568,1118.7855,293.0717,1118.786Q293.0717,1112.3381,293.0717,1105.8904"/>
</g>
<g style="fill:rgb(35,75,105); fill-opacity:0.99607843; stroke-linejoin: miter">
<path d="M153.54855,598.9358L153.54852,598.9363L153.5485,598.93677L153.54852,598.9363L153.54855,598.9358L153.54852,598.9363L153.5485,598.93677Q153.54852,598.9363,153.54855,598.9358"/>
</g>
<g style="fill:rgb(0,0,0); fill-opacity:1.0; stroke-linejoin: miter">
<path d="M357.88977,956.3499L370.13025,956.3504L382.37073,956.3509Q382.37073,1057.5105,382.37073,1158.6702Q370.13025,1158.6707,357.88977,1158.6711Q357.88977,1057.5105,357.88977,956.3499"/>
</g>
<g style="fill:rgb(0,0,0); fill-opacity:1.0; stroke-linejoin: miter">
<path d="M140.92253,715.6752L167.7002,715.6757L194.47786,715.6762Q194.47786,742.4534,194.47786,769.2306Q167.7002,769.2311,140.92253,769.23157Q140.92253,742.4534,140.92253,715.6752"/>
</g>
<g style="fill:rgb(0,0,0); fill-opacity:1.0; stroke-linejoin: miter">
<path d="M126.07327,728.88666L126.07327,728.88666L150.76964,728.8877C152.2058,728.88776,153.37,730.05206,153.37,731.48816L153.37,731.48816L153.37,756.1836C153.37,757.61975,152.2058,758.784,150.76964,758.78406L150.76964,758.78406L126.07327,758.7851C125.38356,758.7851,124.72209,758.51117,124.23439,758.02344C123.74669,757.53577,123.47269,756.8743,123.47269,756.1846L123.47269,756.1846L123.47269,731.4872C123.47269,730.7974,123.74669,730.136,124.23439,729.6483C124.72209,729.16064,125.38356,728.88666,126.07327,728.88666L126.07327,728.88666 M126.073044,734.08765L128.67363,731.4872L128.67363,756.1846L126.073044,753.5841L150.76941,753.58307L148.16905,756.1836L148.16905,731.48816L150.76941,734.0887L126.073044,734.08765 Z"/>
</g>
<g style="fill:rgb(0,0,0); fill-opacity:1.0; stroke-linejoin: miter">
<path d="M227.36258,876.9598L365.45215,876.96027L503.5417,876.9607Q503.5417,895.2507,503.5417,913.5407Q365.45215,913.54126,227.36258,913.54175Q227.36258,895.25073,227.36258,876.9598"/>
</g>
<g style="fill:rgb(255,218,62); fill-opacity:0.7019608; stroke-linejoin: miter">
<path d="M221.88425,470.8413L516.1721,470.84216L516.1721,499.26392L221.88425,499.26477L221.88425,470.8413"/>
</g>
<g style="fill:rgb(201,214,222); fill-opacity:0.7019608; stroke-linejoin: miter">
<path d="M348.2673,512.8232L501.05676,512.82416L501.05676,582.6583L348.2673,582.6593L348.2673,512.8232"/>
</g>
<g style="fill:rgb(201,214,222); fill-opacity:0.7019608; stroke-linejoin: miter">
<path d="M242.384,517.1053L315.10123,517.1061L315.10123,620.8139L242.384,620.8147L242.384,517.1053"/>
</g>
<g style="fill:rgb(255,191,175); fill-opacity:0.99607843; stroke-linejoin: miter">
<path d="M328.93893,560.6821L329.16458,563.728Q330.93732,583.91406,328.8215,593.59625Q327.179,602.5083,317.32538,611.8962L406.89362,598.9605Q392.23593,593.2007,388.21964,584.6546Q383.61224,577.11957,381.02258,550.7174L328.93893,560.6821"/>
</g>
<g style="fill:rgb(255,191,175); fill-opacity:0.99607843; stroke-linejoin: miter">
<path d="M317.00204,545.1827L316.95966,547.16205Q316.3131,553.1662,312.08997,556.9303Q307.83636,560.6927,301.83594,560.2729Q296.0965,559.5727,292.48346,555.13806Q291.32526,553.70416,290.54172,551.9883L289.8692,550.21857Q289.29892,548.3867,289.20718,546.3726Q289.09155,540.1847,292.83725,535.912Q296.58298,531.6394,302.4818,531.2305Q308.394,531.13367,312.49118,535.07056Q316.58835,539.00745,317.00204,545.1827"/>
</g>
<g style="fill:rgb(255,191,175); fill-opacity:0.99607843; stroke-linejoin: miter">
<path d="M408.48914,535.94946L408.44678,537.9289Q407.8002,543.9331,403.57703,547.69714Q399.32343,551.4596,393.323,551.0398Q387.58356,550.3396,383.97055,545.90497Q380.35895,541.4384,380.73663,535.16Q381.38315,529.1558,385.60635,525.3918Q389.8599,521.62933,395.86032,522.04913Q401.59982,522.74927,405.21283,527.18396Q406.37103,528.61786,407.15457,530.33374L407.82712,532.10345Q408.39737,533.9353,408.48914,535.94946"/>
</g>
<g style="fill:rgb(224,77,105); fill-opacity:1.0; stroke-linejoin: miter">
<path d="M407.7343,586.7478L316.85065,595.6715C289.7762,609.46484,271.28784,620.2754,261.145,627.7828C250.64246,635.5563,243.2814,644.0987,238.8912,653.5467C233.89075,664.3079,228.50804,681.37964,226.94864,710.7164L273.9778,731.6285L278.56128,748.64545C293.25006,803.18243,284.48975,852.5824,275.49863,903.45264L448.16425,904.32306C442.8345,891.3985,440.6576,848.9341,439.61783,830.2958C437.68253,795.6105,450.53363,723.5602,450.53363,723.5602L498.63324,705.95123C497.49487,691.4366,496.35913,680.30023,495.36316,672.52313C491.99304,646.20154,485.37183,629.09503,475.86047,620.6475C471.80725,617.048,467.09174,613.4918,461.19678,610.5353L427.99765,597.5168C422.31134,595.04816,415.55984,591.46045,407.7432,586.7531 Z"/>
</g>
<g style="fill:rgb(255,255,255); fill-opacity:1.0; stroke-linejoin: miter">
<path d="M329.33878,506.79248Q327.5226,506.8025,326.22162,508.05414Q324.95267,509.3294,324.91077,511.149Q324.9247,512.9687,326.16797,514.25964Q327.44397,515.5302,329.25742,515.5743Q331.07382,515.5667,332.37695,514.3172Q333.6477,513.0436,333.69217,511.22388Q333.68002,509.4038,332.43866,508.11078Q331.16513,506.8391,329.35156,506.79248 Z"/>
</g>
<g style="fill:rgb(0,0,0); fill-opacity:1.0; stroke-linejoin: miter">
<path d="M328.68506,506.77368Q327.83145,506.7746,327.43066,506.97992L324.81317,508.7218L326.28708,508.18048Q326.0288,509.61353,326.16275,510.5514Q326.29166,511.60803,326.8633,512.8253Q328.2906,515.6947,329.8298,515.7073Q330.5611,515.69824,331.1005,515.0866Q331.61835,514.45734,331.67627,513.5218Q331.84552,512.0146,330.30838,507.73413L330.40845,507.04846L331.95135,506.9532Q329.5527,506.76074,328.69638,506.77368 Z"/>
</g>
<g style="fill:rgb(0,0,0); fill-opacity:1.0; stroke-linejoin: miter">
<path d="M327.18365,499.2412Q324.78915,499.91852,322.28406,503.25897L335.3101,501.01166L335.17297,500.9449L333.80048,500.37274Q333.06842,500.0763,332.49893,499.872Q331.37982,499.46887,330.45096,499.2644Q328.58322,498.84796,327.18777,499.23975 Z"/>
</g>
<g style="fill:rgb(255,255,255); fill-opacity:1.0; stroke-linejoin: miter">
<path d="M305.06174,511.54504Q303.24582,511.5547,301.9442,512.80554Q300.6753,514.08105,300.63336,515.90094Q300.648,517.721,301.8908,519.0116Q303.1668,520.2816,304.98044,520.32587Q306.79678,520.31854,308.10016,519.0693Q309.3705,517.7949,309.41476,515.97516Q309.40277,514.1556,308.16144,512.86285Q306.8881,511.5912,305.07446,511.54504 Z"/>
</g>
<g style="fill:rgb(0,0,0); fill-opacity:1.0; stroke-linejoin: miter">
<path d="M304.40762,511.5254Q303.55444,511.52643,303.15393,511.73224L300.5359,513.47375L302.01025,512.93335Q301.75177,514.3656,301.8857,515.30334Q302.01437,516.3597,302.58627,517.57654Q304.01334,520.4474,305.55316,520.4587Q306.28412,520.4507,306.82358,519.8387Q307.3415,519.2094,307.39948,518.2737Q307.56863,516.76605,306.0311,512.48584L306.13184,511.80103L307.674,511.70508Q305.2756,511.51306,304.41956,511.5254 Z"/>
</g>
<g style="fill:rgb(0,0,0); fill-opacity:1.0; stroke-linejoin: miter">
<path d="M302.90616,503.9937Q300.51193,504.67072,298.00708,508.01166L311.03296,505.76385L310.89575,505.69666L309.52286,505.12457Q308.79138,504.82916,308.2217,504.62457Q307.10248,504.2207,306.1735,504.01636Q304.30606,503.5999,302.91092,503.99164 Z"/>
</g>
<g style="fill:rgb(107,39,37); fill-opacity:1.0; stroke-linejoin: miter">
<path d="M381.34995,467.94492L384.12332,468.67172Q392.688,470.47852,399.05048,475.64792Q401.0897,477.49557,402.6395,480.09048L404.03644,482.9189Q405.29565,485.95752,405.882,490.02353Q408.5391,511.42548,395.97888,549.68024Q392.3107,559.7376,388.1897,566.2666Q386.12003,569.55566,383.87604,572.1296Q382.89514,573.7752,376.64462,578.53625Q357.49503,589.4977,340.01364,585.063Q317.89838,579.7794,299.9972,543.3717Q293.44534,529.51025,290.782,515.0445Q288.13138,500.58588,291.45255,488.5919Q293.1735,482.6881,296.19287,477.6405L299.45175,472.81677Q302.9926,468.212,307.32117,464.5222Q311.6497,460.83243,316.42532,458.09686Q318.78912,456.1033,330.90686,452.1351Q342.1002,449.2012,352.93378,452.15814Q365.05966,455.49887,381.34995,467.94492"/>
</g>
<g style="fill:rgb(0,0,0); fill-opacity:1.0; stroke-linejoin: miter">
<path d="M255.33133,680.381L370.13013,680.3815L484.92896,680.3819Q484.92896,810.36597,484.92896,940.3501Q370.13013,940.3506,255.33133,940.351Q255.33133,810.36597,255.33133,680.381"/>
</g>
</g>
</svg>